<svg xmlns="http://www.w3.org/2000/svg" xmlns:xlink="http://www.w3.org/1999/xlink" width="500" zoomAndPan="magnify" viewBox="0 0 375 374.999991" height="500" preserveAspectRatio="xMidYMid meet" version="1.0"><defs><filter x="0%" y="0%" width="100%" height="100%" id="c230f00e80"><feColorMatrix values="0 0 0 0 1 0 0 0 0 1 0 0 0 0 1 0 0 0 1 0" color-interpolation-filters="sRGB"/></filter><clipPath id="0a0a43c2d5"><path d="M 11.796875 15.148438 L 362.796875 15.148438 L 362.796875 363.898438 L 11.796875 363.898438 Z M 11.796875 15.148438 " clip-rule="nonzero"/></clipPath><mask id="69b366561e"><g filter="url(#c230f00e80)"><rect x="-37.5" width="450" fill="#000000" y="-37.499999" height="449.999989" fill-opacity="0.8275"/></g></mask><clipPath id="7cffcd7c6d"><path d="M 23 70 L 190 70 L 190 143 L 23 143 Z M 23 70 " clip-rule="nonzero"/></clipPath><clipPath id="b877cb43b3"><path d="M 109.886719 1.03125 L 212.867188 110.097656 L 103.804688 213.078125 L 0.824219 104.011719 Z M 109.886719 1.03125 " clip-rule="nonzero"/></clipPath><clipPath id="a0787aa3ed"><path d="M 109.886719 1.03125 L 212.867188 110.097656 L 103.804688 213.078125 L 0.824219 104.011719 Z M 109.886719 1.03125 " clip-rule="nonzero"/></clipPath><clipPath id="c8010c5308"><path d="M 109.886719 1.03125 L 212.867188 110.097656 L 103.804688 213.078125 L 0.824219 104.011719 Z M 109.886719 1.03125 " clip-rule="nonzero"/></clipPath><clipPath id="92000cfcea"><rect x="0" width="214" y="0" height="214"/></clipPath></defs><g clip-path="url(#0a0a43c2d5)"><path fill="#0a72c1" d="M 29.050781 15.148438 L 345.542969 15.148438 C 350.117188 15.148438 354.507812 16.964844 357.742188 20.195312 C 360.976562 23.429688 362.796875 27.8125 362.796875 32.382812 L 362.796875 346.664062 C 362.796875 351.234375 360.976562 355.617188 357.742188 358.851562 C 354.507812 362.082031 350.117188 363.898438 345.542969 363.898438 L 29.050781 363.898438 C 24.476562 363.898438 20.085938 362.082031 16.851562 358.851562 C 13.613281 355.617188 11.796875 351.234375 11.796875 346.664062 L 11.796875 32.382812 C 11.796875 27.8125 13.613281 23.429688 16.851562 20.195312 C 20.085938 16.964844 24.476562 15.148438 29.050781 15.148438 " fill-opacity="1" fill-rule="nonzero"/></g><path fill="#ffffff" d="M 345.027344 205.183594 C 341.84375 198.507812 336.410156 195.011719 330.160156 193.699219 C 331.785156 192.203125 333.160156 190.390625 334.410156 188.332031 C 337.40625 183.402344 338.71875 177.597656 338.84375 171.855469 C 339.09375 160.058594 334.285156 148.140625 326.914062 139.089844 C 312.859375 121.800781 287.3125 121.988281 268.757812 132.535156 C 270.757812 122.550781 269.445312 111.691406 263.824219 103.328125 C 257.265625 93.464844 246.148438 88.222656 234.714844 86.414062 C 210.667969 82.667969 180.683594 90.71875 165.066406 110.253906 C 159.320312 117.371094 157.070312 125.109375 157.757812 133.097656 C 155.886719 131.726562 153.886719 130.476562 152.136719 129.414062 C 147.078125 126.484375 141.519531 124.484375 135.710938 123.675781 C 123.777344 122.050781 110.722656 125.921875 101.476562 133.660156 C 94.292969 139.652344 87.734375 148.703125 85.238281 157.75 C 84.175781 161.496094 83.613281 166.050781 85.113281 169.734375 C 85.175781 169.921875 85.300781 170.109375 85.363281 170.359375 C 55.878906 158 21.210938 206.433594 42.699219 232.582031 C 51.320312 243.066406 65.125 247.0625 78.179688 248.808594 C 80.488281 267.222656 90.671875 283.261719 108.039062 291.125 C 125.027344 298.863281 145.453125 298.054688 161.320312 288.003906 C 168.378906 283.511719 173.875 277.582031 178.121094 270.714844 C 192.113281 291.25 216.351562 304.667969 241.273438 293.996094 C 256.515625 287.441406 274.316406 270.652344 277.066406 252.804688 C 291.433594 263.101562 313.484375 263.414062 328.476562 254.925781 C 345.089844 245.503906 353.460938 222.722656 345.027344 205.183594 Z M 332.347656 237.699219 C 325.851562 246.6875 314.671875 249.808594 304.113281 249.371094 C 292.621094 248.871094 282.625 243.128906 275.816406 234.019531 C 274.316406 232.019531 272.257812 231.335938 270.445312 231.523438 C 267.199219 230.960938 263.386719 233.644531 264.636719 237.574219 C 267.882812 247.5 266.074219 256.300781 260.265625 264.851562 C 254.578125 273.152344 245.960938 280.203125 236.589844 283.949219 C 214.351562 292.871094 192.363281 277.019531 182.371094 257.609375 C 180.121094 253.242188 174.5625 255.113281 173 258.859375 C 164.878906 278.269531 144.765625 288.503906 124.214844 285.695312 C 103.351562 282.886719 87.175781 266.535156 85.738281 245.316406 C 85.613281 243.003906 84.050781 241.632812 81.800781 241.382812 C 64.25 239.386719 41.574219 231.460938 43.449219 209.988281 C 44.699219 195.511719 55.691406 181.15625 68.871094 175.351562 C 76.367188 172.042969 85.113281 171.917969 91.984375 176.785156 C 92.859375 177.410156 93.984375 175.976562 93.171875 175.226562 C 92.734375 174.851562 92.359375 174.539062 91.921875 174.226562 C 91.796875 171.792969 90.171875 169.609375 90.171875 166.925781 C 90.109375 163.242188 91.546875 159.808594 93.109375 156.566406 C 96.355469 149.886719 101.289062 143.207031 107.351562 138.839844 C 115.21875 133.160156 126.027344 130.289062 135.585938 132.222656 C 140.394531 133.222656 144.828125 135.21875 148.890625 137.902344 C 153.449219 140.898438 156.757812 145.332031 161.195312 148.328125 C 164.816406 150.761719 168.503906 146.140625 166.816406 142.710938 C 166.003906 141.023438 164.816406 139.464844 163.441406 137.964844 C 162.445312 119.992188 178.308594 105.886719 194.613281 99.707031 C 212.101562 93.09375 239.527344 89.785156 253.515625 105.386719 C 262.511719 115.375 259.453125 128.667969 257.828125 140.585938 C 257.828125 140.648438 257.828125 140.710938 257.828125 140.773438 C 257.515625 141.085938 257.265625 141.335938 256.953125 141.648438 C 255.328125 143.394531 257.453125 146.390625 259.578125 145.019531 C 259.640625 144.957031 259.765625 144.894531 259.828125 144.832031 C 261.449219 146.015625 263.761719 145.953125 264.949219 143.582031 C 265.324219 142.898438 265.636719 142.148438 265.949219 141.398438 C 282.6875 133.097656 305.800781 129.414062 318.605469 144.832031 C 324.226562 151.570312 327.914062 160.683594 328.164062 169.484375 C 328.476562 179.59375 323.289062 185.273438 316.417969 191.828125 C 314.421875 193.699219 315.046875 196.132812 316.730469 197.507812 C 317.105469 198.382812 317.917969 199.066406 319.230469 199.003906 C 340.46875 198.628906 342.03125 224.21875 332.347656 237.699219 Z M 332.347656 237.699219 " fill-opacity="1" fill-rule="nonzero"/><g mask="url(#69b366561e)"><g transform="matrix(1, 0, 0, 1, 85, 91)"><g clip-path="url(#92000cfcea)"><g clip-path="url(#7cffcd7c6d)"><g clip-path="url(#b877cb43b3)"><g clip-path="url(#a0787aa3ed)"><g clip-path="url(#c8010c5308)"><path fill="#000000" d="M 125.128906 117.03125 C 125.3125 110.730469 125.511719 103.765625 125.691406 97.464844 C 126.074219 84.113281 113.480469 72.371094 96.988281 71.898438 C 83.8125 71.519531 67.640625 71.054688 54.464844 70.679688 C 37.96875 70.203125 24.726562 81.207031 24.34375 94.558594 C 24.164062 100.859375 23.964844 107.824219 23.78125 114.125 C 23.398438 127.476562 35.988281 139.21875 52.484375 139.691406 C 61.835938 139.960938 72.695312 140.269531 82.921875 140.5625 C 85.566406 140.640625 87.773438 138.554688 87.851562 135.910156 C 87.929688 133.265625 85.84375 131.058594 83.199219 130.984375 C 72.972656 130.6875 62.109375 130.378906 52.761719 130.113281 C 42.050781 129.804688 33.113281 123.070312 33.363281 114.398438 C 33.363281 114.398438 33.921875 94.832031 33.921875 94.832031 C 34.171875 86.160156 43.480469 79.949219 54.191406 80.257812 C 67.363281 80.636719 83.539062 81.097656 96.710938 81.480469 C 107.425781 81.785156 116.363281 88.519531 116.113281 97.191406 C 116.113281 97.191406 115.550781 116.757812 115.550781 116.757812 C 115.476562 119.398438 117.5625 121.605469 120.203125 121.683594 C 122.847656 121.757812 125.054688 119.671875 125.128906 117.03125 Z M 88.582031 96.402344 C 88.398438 102.703125 88.199219 109.664062 88.019531 115.964844 C 87.636719 129.320312 100.234375 141.0625 116.722656 141.535156 C 129.898438 141.910156 146.070312 142.375 159.246094 142.753906 C 175.742188 143.226562 188.984375 132.226562 189.367188 118.875 C 189.546875 112.574219 189.746094 105.609375 189.929688 99.308594 C 190.3125 85.957031 177.722656 74.214844 161.226562 73.742188 C 151.878906 73.472656 141.015625 73.160156 130.789062 72.867188 C 128.144531 72.792969 125.9375 74.878906 125.859375 77.519531 C 125.78125 80.164062 127.867188 82.375 130.511719 82.445312 C 140.738281 82.742188 151.601562 83.050781 160.953125 83.320312 C 171.660156 83.628906 180.597656 90.363281 180.347656 99.035156 C 180.347656 99.035156 179.789062 118.597656 179.789062 118.597656 C 179.539062 127.269531 170.230469 133.480469 159.519531 133.175781 C 146.347656 132.792969 130.171875 132.332031 117 131.953125 C 106.285156 131.648438 97.351562 124.914062 97.597656 116.242188 C 97.597656 116.242188 98.160156 96.675781 98.160156 96.675781 C 98.234375 94.035156 96.148438 91.824219 93.507812 91.75 C 90.867188 91.671875 88.65625 93.757812 88.582031 96.402344 Z M 88.582031 96.402344 " fill-opacity="1" fill-rule="evenodd"/></g></g></g></g></g></g></g></svg>